<svg width="20" height="20" viewBox="0 0 20 20" fill="none" xmlns="http://www.w3.org/2000/svg">
<path d="M5.63477 10C5.38281 10 5.14117 10.1001 4.96301 10.2782C4.78485 10.4564 4.68477 10.698 4.68477 10.95V12.85C4.68477 13.102 4.78485 13.3436 4.96301 13.5218C5.14117 13.6999 5.38281 13.8 5.63477 13.8H7.53477C7.78672 13.8 8.02836 13.6999 8.20652 13.5218C8.38468 13.3436 8.48477 13.102 8.48477 12.85V10.95C8.48477 10.698 8.38468 10.4564 8.20652 10.2782C8.02836 10.1001 7.78672 10 7.53477 10H5.63477Z" fill="#353537"/>
<path fill-rule="evenodd" clip-rule="evenodd" d="M6.58477 2.4H14.1848V0.975C14.1848 0.849022 14.2348 0.728204 14.3239 0.639124C14.413 0.550045 14.5338 0.5 14.6598 0.5H15.6098C15.7357 0.5 15.8566 0.550045 15.9456 0.639124C16.0347 0.728204 16.0848 0.849022 16.0848 0.975V2.4H17.0348C17.7906 2.4 18.5155 2.70027 19.05 3.23475C19.5845 3.76922 19.8848 4.49413 19.8848 5.25V16.65C19.8848 17.4059 19.5845 18.1308 19.05 18.6653C18.5155 19.1997 17.7906 19.5 17.0348 19.5H3.73477C2.9789 19.5 2.25399 19.1997 1.71951 18.6653C1.18503 18.1308 0.884766 17.4059 0.884766 16.65V5.25C0.884766 4.49413 1.18503 3.76922 1.71951 3.23475C2.25399 2.70027 2.9789 2.4 3.73477 2.4H4.68477V0.975C4.68477 0.849022 4.73481 0.728204 4.82389 0.639124C4.91297 0.550045 5.03379 0.5 5.15977 0.5H6.10977C6.23574 0.5 6.35656 0.550045 6.44564 0.639124C6.53472 0.728204 6.58477 0.849022 6.58477 0.975V2.4ZM2.78477 5.25C2.78477 4.99804 2.88485 4.75641 3.06301 4.57825C3.24117 4.40009 3.48281 4.3 3.73477 4.3H17.0348C17.2867 4.3 17.5284 4.40009 17.7065 4.57825C17.8847 4.75641 17.9848 4.99804 17.9848 5.25V6.2H2.78477V5.25ZM2.78477 8.1H17.9848V16.65C17.9848 16.902 17.8847 17.1436 17.7065 17.3218C17.5284 17.4999 17.2867 17.6 17.0348 17.6H3.73477C3.48281 17.6 3.24117 17.4999 3.06301 17.3218C2.88485 17.1436 2.78477 16.902 2.78477 16.65V8.1Z" fill="#353537"/>
</svg>
