<svg width="25" height="24" viewBox="0 0 25 24" fill="none" xmlns="http://www.w3.org/2000/svg">
<g clip-path="url(#clip0_4357_31553)">
<mask id="mask0_4357_31553" style="mask-type:luminance" maskUnits="userSpaceOnUse" x="0" y="0" width="25" height="24">
<path d="M24.8848 0H0.884766V24H24.8848V0Z" fill="white"/>
</mask>
<g mask="url(#mask0_4357_31553)">
<path d="M22.5145 14.6608L22.1045 16.5208C21.3945 19.7208 18.8845 22.0008 15.2645 22.0008H10.5045C6.8845 22.0008 4.37451 19.7208 3.66451 16.5208L3.2545 14.6608C3.0545 13.7508 3.59449 12.7208 4.46449 12.3708L5.88451 11.8008L11.3946 9.59079C11.8746 9.40079 12.3845 9.30078 12.8845 9.30078C13.3845 9.30078 13.8945 9.40079 14.3745 9.59079L19.8845 11.8008L21.3046 12.3708C22.1746 12.7208 22.7146 13.7508 22.5145 14.6608Z" fill="#005596"/>
<path d="M19.8848 8V11.8L14.3748 9.59C13.4148 9.21 12.3548 9.21 11.3948 9.59L5.88477 11.8V8C5.88477 6.35 7.23477 5 8.88477 5H16.8848C18.5348 5 19.8848 6.35 19.8848 8Z" fill="#4FC1F3"/>
<path d="M15.3848 5H10.3848V3C10.3848 2.45 10.8348 2 11.3848 2H14.3848C14.9348 2 15.3848 2.45 15.3848 3V5Z" fill="#005596"/>
</g>
</g>
<defs>
<clipPath id="clip0_4357_31553">
<rect width="24" height="24" fill="white" transform="translate(0.884766)"/>
</clipPath>
</defs>
</svg>
