<svg width="25" height="24" viewBox="0 0 25 24" fill="none" xmlns="http://www.w3.org/2000/svg">
<g clip-path="url(#clip0_4357_31579)">
<mask id="mask0_4357_31579" style="mask-type:luminance" maskUnits="userSpaceOnUse" x="0" y="0" width="25" height="24">
<path d="M24.8848 0H0.884766V24H24.8848V0Z" fill="white"/>
</mask>
<g mask="url(#mask0_4357_31579)">
<path d="M19.1143 13.2607H6.6543C5.54973 13.2607 4.6543 14.1561 4.6543 15.2607V20.0007C4.6543 21.1052 5.54973 22.0007 6.6543 22.0007H19.1143C20.2189 22.0007 21.1143 21.1052 21.1143 20.0007V15.2607C21.1143 14.1561 20.2189 13.2607 19.1143 13.2607Z" fill="#B7C2CD"/>
<path d="M19.0539 13.2596L18.9439 12.6596C18.4139 9.72961 15.8639 7.59961 12.8839 7.59961C9.90387 7.59961 7.35387 9.72961 6.82387 12.6596L6.71387 13.2596" fill="#414D59"/>
<path d="M16.4845 1.2002H13.4045C12.7045 1.2002 12.1445 1.7702 12.1445 2.4602V7.60019C12.1445 8.01019 12.4845 8.35019 12.8945 8.35019C13.3045 8.35019 13.6445 8.01019 13.6445 7.60019V5.7802H16.4945C17.1945 5.7802 17.7545 5.2102 17.7545 4.5202V2.4602C17.7545 1.7602 17.1845 1.2002 16.4945 1.2002H16.4845Z" fill="#414D59"/>
<path d="M9.52441 13.2607V22.0007H8.02441V13.2607C8.02441 12.8507 8.35441 12.5107 8.77441 12.5107C9.19441 12.5107 9.52441 12.8507 9.52441 13.2607Z" fill="#414D59"/>
<path d="M13.6348 13.2607V22.0007H12.1348V13.2607C12.1348 12.8507 12.4748 12.5107 12.8848 12.5107C13.2948 12.5107 13.6348 12.8507 13.6348 13.2607Z" fill="#414D59"/>
<path d="M17.7441 13.2607V22.0007H16.2441V13.2607C16.2441 12.8507 16.5841 12.5107 16.9941 12.5107C17.4041 12.5107 17.7441 12.8507 17.7441 13.2607Z" fill="#414D59"/>
</g>
</g>
<defs>
<clipPath id="clip0_4357_31579">
<rect width="24" height="24" fill="white" transform="translate(0.884766)"/>
</clipPath>
</defs>
</svg>
