<svg width="25" height="24" viewBox="0 0 25 24" fill="none" xmlns="http://www.w3.org/2000/svg">
<g clip-path="url(#clip0_4357_31566)">
<path fill-rule="evenodd" clip-rule="evenodd" d="M20.6608 16.7998C21.0766 16.7998 21.413 17.138 21.4108 17.5537L21.3887 21.754C21.3865 22.1666 21.0514 22.5 20.6387 22.5C20.223 22.5 19.8865 22.1618 19.8887 21.7461L19.9108 17.5458C19.913 17.1332 20.2482 16.7998 20.6608 16.7998Z" fill="#414D59"/>
<path d="M22.8844 13.0896C22.8844 11.8746 21.8994 10.8896 20.6844 10.8896C19.4693 10.8896 18.4844 11.8746 18.4844 13.0896V15.3596C18.4844 16.5747 19.4693 17.5596 20.6844 17.5596C21.8994 17.5596 22.8844 16.5747 22.8844 15.3596V13.0896Z" fill="#B7C2CD"/>
<path d="M2.98438 22V4C2.98438 3.44771 3.43209 3 3.98438 3H14.1844C14.7366 3 15.1844 3.44772 15.1844 4V22" fill="#B7C2CD"/>
<path fill-rule="evenodd" clip-rule="evenodd" d="M5.93457 8.25C5.93457 7.83579 6.27036 7.5 6.68457 7.5H11.6346C12.0488 7.5 12.3846 7.83579 12.3846 8.25C12.3846 8.66421 12.0488 9 11.6346 9H6.68457C6.27036 9 5.93457 8.66421 5.93457 8.25Z" fill="#414D59"/>
<path fill-rule="evenodd" clip-rule="evenodd" d="M5.93457 12C5.93457 11.5858 6.27036 11.25 6.68457 11.25H11.6346C12.0488 11.25 12.3846 11.5858 12.3846 12C12.3846 12.4142 12.0488 12.75 11.6346 12.75H6.68457C6.27036 12.75 5.93457 12.4142 5.93457 12Z" fill="#414D59"/>
<path fill-rule="evenodd" clip-rule="evenodd" d="M11.3848 16.8008C11.9371 16.8008 12.3848 17.2485 12.3848 17.8008V21.0508C12.3848 21.6031 11.9371 22.0508 11.3848 22.0508H6.93164C6.37936 22.0508 5.93164 21.6031 5.93164 21.0508V17.8008C5.93164 17.2485 6.37936 16.8008 6.93164 16.8008H11.3848Z" fill="#414D59"/>
<path fill-rule="evenodd" clip-rule="evenodd" d="M1.13477 22C1.13477 21.5858 1.47055 21.25 1.88477 21.25H23.8848C24.299 21.25 24.6348 21.5858 24.6348 22C24.6348 22.4142 24.299 22.75 23.8848 22.75H1.88477C1.47055 22.75 1.13477 22.4142 1.13477 22Z" fill="#414D59"/>
</g>
<defs>
<clipPath id="clip0_4357_31566">
<rect width="24" height="24" fill="white" transform="translate(0.884766)"/>
</clipPath>
</defs>
</svg>
