<svg width="25" height="24" viewBox="0 0 25 24" fill="none" xmlns="http://www.w3.org/2000/svg">
<path fill-rule="evenodd" clip-rule="evenodd" d="M8.58777 5.552C9.62677 4.592 11.0228 4 12.6348 4C14.2468 4 15.6428 4.592 16.6818 5.552L16.6888 5.558C17.3015 6.10959 17.7914 6.78387 18.1267 7.53707C18.4619 8.29027 18.635 9.10556 18.6348 9.93C18.6348 11.487 17.9708 12.962 16.9938 14.392C16.0138 15.825 14.5758 17.417 12.6348 19.166C10.6938 17.416 9.25477 15.825 8.27577 14.392C7.29577 12.958 6.63477 11.492 6.63477 9.929C6.63478 9.10489 6.80803 8.29 7.14328 7.53716C7.47852 6.78432 7.96827 6.11037 8.58077 5.559L8.58777 5.552ZM12.6348 2C10.5148 2 8.63677 2.785 7.23477 4.08C6.41618 4.81889 5.7618 5.72137 5.31393 6.72907C4.86606 7.73677 4.63469 8.82726 4.63477 9.93C4.63477 12.07 5.54277 13.936 6.62477 15.52C7.84077 17.298 9.62577 19.21 11.9788 21.255C12.1607 21.4131 12.3937 21.5002 12.6348 21.5002C12.8758 21.5002 13.1088 21.4131 13.2908 21.255C15.6438 19.21 17.4288 17.298 18.6448 15.52C19.7248 13.938 20.6348 12.063 20.6348 9.93C20.6348 8.82726 20.4035 7.73677 19.9556 6.72907C19.5077 5.72137 18.8533 4.81889 18.0348 4.08C16.6338 2.785 14.7548 2 12.6348 2ZM12.6348 12C13.1652 12 13.6739 11.7893 14.049 11.4142C14.4241 11.0391 14.6348 10.5304 14.6348 10C14.6348 9.46957 14.4241 8.96086 14.049 8.58579C13.6739 8.21071 13.1652 8 12.6348 8C12.1043 8 11.5956 8.21071 11.2206 8.58579C10.8455 8.96086 10.6348 9.46957 10.6348 10C10.6348 10.5304 10.8455 11.0391 11.2206 11.4142C11.5956 11.7893 12.1043 12 12.6348 12Z" fill="#353537"/>
</svg>
