<svg width="160" height="32" viewBox="0 0 160 32" fill="none" xmlns="http://www.w3.org/2000/svg">
<g clip-path="url(#clip0_4357_668)">
<path d="M134.455 12.4403C134.317 12.3785 134.168 12.3465 134.017 12.3465C133.866 12.3465 133.717 12.3785 133.579 12.4403L120.808 19.0663C120.526 19.1913 120.206 19.202 119.916 19.0962L108.224 14.0455C107.976 13.9379 107.968 13.7491 108.211 13.6251L133.578 0.638177C133.717 0.577322 133.866 0.545898 134.018 0.545898C134.169 0.545898 134.319 0.577322 134.457 0.638177L159.821 13.6244C160.062 13.7484 160.057 13.9372 159.807 14.0448L148.115 19.0955C147.826 19.2013 147.506 19.1906 147.224 19.0656L134.455 12.4403Z" fill="#0075B8"/>
<path d="M119.514 25.5869H120.421L121.309 29.606H121.326L122.421 25.5869H123.04L124.138 29.606H124.153L125.042 25.5869H125.947L124.533 31.2425H123.821L122.738 27.1679H122.723L121.645 31.2425H120.932L119.514 25.5869Z" fill="#0075B8"/>
<path d="M131.471 28.7726H129.23V31.2435H128.375V25.5879H129.23V28.0103H131.471V25.5879H132.331V31.2435H131.471V28.7726Z" fill="#0075B8"/>
<path d="M136.123 25.5869H135.264V31.2425H136.123V25.5869Z" fill="#0075B8"/>
<path d="M139.061 25.5869H139.916V30.4317H142.672V31.2432H139.061V25.5869Z" fill="#0075B8"/>
<path d="M144.905 25.5869H145.76V30.4317H148.517V31.2432H144.902L144.905 25.5869Z" fill="#0075B8"/>
<path d="M3.14847 26.2402H1.33594L1.40362 31.0965H2.07833L2.05126 29.1685H3.22399C3.62395 29.1845 4.01408 29.0421 4.3098 28.7724C4.44963 28.6363 4.55863 28.4718 4.62943 28.2901C4.70023 28.1083 4.73118 27.9134 4.72018 27.7186C4.72384 27.5189 4.68567 27.3207 4.60812 27.1366C4.53057 26.9526 4.41536 26.7868 4.2699 26.6499C3.96279 26.3732 3.56013 26.2268 3.14704 26.2417M4.04761 27.6866C4.05705 27.8042 4.04078 27.9225 3.99993 28.0332C3.95909 28.1439 3.89464 28.2444 3.81107 28.3278C3.62455 28.4845 3.38531 28.5643 3.14206 28.5508H2.042L2.01849 26.8594H3.15274C3.38935 26.8462 3.62251 26.9207 3.80751 27.0688C3.88902 27.1484 3.95252 27.2445 3.99369 27.3507C4.03487 27.4569 4.05277 27.5707 4.04618 27.6844" fill="#0075B8"/>
<path d="M12.8998 26.2011C12.6752 26.1937 12.4514 26.2325 12.2425 26.3153C12.0335 26.398 11.8438 26.5228 11.6851 26.682C11.4853 26.8748 11.3476 27.1229 11.2897 27.3945C11.2299 27.8115 11.2089 28.2332 11.227 28.6541C11.2201 29.0766 11.2528 29.4988 11.3246 29.9152C11.3933 30.1951 11.5418 30.4491 11.7521 30.6462C11.9168 30.8084 12.1126 30.9357 12.3277 31.0204C12.5428 31.1052 12.7728 31.1456 13.0039 31.1392C13.228 31.1466 13.4512 31.1077 13.6596 31.025C13.868 30.9422 14.0571 30.8174 14.2151 30.6583C14.4172 30.4646 14.5571 30.2151 14.6169 29.9416C14.6773 29.5272 14.6986 29.1081 14.6803 28.6898C14.6868 28.2691 14.6538 27.8489 14.582 27.4344C14.5112 27.152 14.3603 26.8962 14.1474 26.6977C13.9837 26.5358 13.7891 26.4086 13.5751 26.3238C13.3611 26.2389 13.1321 26.1982 12.902 26.2039M13.9329 27.5933C13.9846 27.9445 14.0084 28.2992 14.0042 28.6541C14.0181 29.0086 14.0036 29.3636 13.9607 29.7157C13.9314 29.9029 13.8459 30.0768 13.7156 30.2144C13.5174 30.4114 13.25 30.5232 12.9706 30.526C12.6911 30.5288 12.4216 30.4224 12.2194 30.2294C12.0912 30.099 12.0048 29.9333 11.9715 29.7535C11.9195 29.4026 11.8957 29.048 11.9002 28.6933C11.886 28.3389 11.9006 27.9838 11.9437 27.6317C11.9727 27.4445 12.0579 27.2706 12.1881 27.133C12.286 27.0324 12.4036 26.9531 12.5336 26.8999C12.6635 26.8467 12.803 26.8208 12.9433 26.8238C13.0799 26.8202 13.2159 26.8444 13.3428 26.8952C13.4697 26.9459 13.5849 27.022 13.6814 27.1188C13.8097 27.2491 13.896 27.4149 13.9294 27.5947" fill="#0075B8"/>
<path d="M25.017 29.7527L24.006 26.2402H23.4239L22.5127 29.7527L21.6136 26.2402H20.9082L22.217 31.0965H22.8191L23.7453 27.5868L24.7677 31.0965H25.369L26.5431 26.2402H25.8179L25.017 29.7527Z" fill="#0075B8"/>
<path d="M33.1099 31.0965H36.1928L36.1835 30.478H33.7754L33.754 28.9576H35.8074L35.7988 28.3392H33.7469L33.7262 26.8587H36.1351L36.1265 26.2402H33.043L33.1099 31.0965Z" fill="#0075B8"/>
<path d="M44.7793 26.2413H42.9141L42.9817 31.0968H43.6579L43.6287 29.0178H44.6197L45.7148 31.0968H46.48L45.3258 28.9494C45.6154 28.8824 45.8718 28.7147 46.0492 28.4761C46.2266 28.2375 46.3133 27.9437 46.294 27.647C46.299 27.4551 46.2628 27.2644 46.1878 27.0876C46.1128 26.9109 46.0008 26.7523 45.8594 26.6225C45.5613 26.363 45.1757 26.2267 44.7807 26.2413M45.6179 27.6164C45.6275 27.7242 45.6124 27.8328 45.5738 27.9339C45.5351 28.035 45.4739 28.126 45.3949 28.1999C45.2168 28.3434 44.992 28.416 44.7636 28.4037H43.6187L43.5973 26.8576H44.7786C44.9997 26.8465 45.2173 26.9165 45.3906 27.0542C45.4675 27.1254 45.5278 27.2127 45.567 27.3099C45.6063 27.4071 45.6237 27.5117 45.6179 27.6164Z" fill="#0075B8"/>
<path d="M53.217 31.0965H56.2999L56.2906 30.478H53.8817L53.8611 28.9576H55.9144L55.9059 28.3392H53.8582L53.8368 26.8587H56.2457L56.2372 26.2402H53.1543L53.217 31.0965Z" fill="#0075B8"/>
<path d="M66.0127 26.7701C65.8437 26.5936 65.6389 26.455 65.4121 26.3638C65.1854 26.2725 64.9417 26.2305 64.6975 26.2408H63.0232L63.0944 31.097H64.8044C65.0417 31.1084 65.2786 31.0683 65.4989 30.9794C65.7192 30.8905 65.9176 30.7548 66.0804 30.5819C66.2209 30.4167 66.322 30.2218 66.3761 30.0119C66.4347 29.8168 66.4701 29.6154 66.4815 29.412C66.4887 29.2431 66.4894 28.9987 66.4815 28.6845C66.4737 28.3703 66.4694 28.1238 66.4587 27.9564C66.4407 27.7514 66.3991 27.5491 66.3348 27.3536C66.2725 27.1368 66.1624 26.9367 66.0127 26.768M65.6985 27.5389C65.7423 27.6947 65.7711 27.8543 65.7847 28.0155C65.7954 28.1644 65.8033 28.3782 65.8075 28.6489C65.8118 28.9197 65.8075 29.1348 65.8026 29.2823C65.794 29.444 65.7701 29.6046 65.7313 29.7618C65.7021 29.9078 65.6353 30.0436 65.5375 30.1558C65.4251 30.2684 65.2896 30.3553 65.1405 30.4107C64.9913 30.466 64.8319 30.4884 64.6733 30.4764H63.7585L63.7079 26.8571H64.659C64.8144 26.8453 64.9705 26.8667 65.117 26.9197C65.2636 26.9728 65.3972 27.0563 65.509 27.1648C65.6033 27.2714 65.6692 27.4001 65.7007 27.5389" fill="#0075B8"/>
<path d="M80.7915 26.2411H78.959L79.0267 31.0974H80.9546C81.34 31.1162 81.7184 30.989 82.0141 30.7411C82.1491 30.6114 82.2537 30.4534 82.3205 30.2785C82.3873 30.1036 82.4145 29.9161 82.4002 29.7294C82.4027 29.4595 82.3199 29.1957 82.1637 28.9756C82.052 28.8223 81.9074 28.6959 81.7405 28.6058C81.8846 28.5223 82.0081 28.4073 82.1017 28.2695C82.2372 28.0696 82.306 27.832 82.2983 27.5906C82.3031 27.4039 82.2668 27.2185 82.1921 27.0474C82.1173 26.8763 82.006 26.7236 81.8659 26.6002C81.5649 26.3512 81.1825 26.2221 80.7922 26.2376M81.7255 29.681C81.7327 29.7878 81.7164 29.895 81.6776 29.9948C81.6388 30.0947 81.5785 30.1848 81.5011 30.2588C81.3245 30.4095 81.0966 30.4861 80.8649 30.4725H79.6935L79.6722 28.9257H80.8798C81.1044 28.9131 81.3255 28.985 81.4997 29.1274C81.5748 29.1974 81.6339 29.283 81.6729 29.378C81.7118 29.4731 81.7298 29.5755 81.7255 29.6781M79.6622 28.3144L79.6422 26.8596H80.7972C81.0136 26.8484 81.2274 26.9118 81.4028 27.0391C81.4776 27.1039 81.5365 27.1852 81.5746 27.2765C81.6128 27.3679 81.6294 27.4668 81.6229 27.5656C81.6324 27.6696 81.6169 27.7743 81.5777 27.8711C81.5385 27.9679 81.4769 28.0539 81.3978 28.1221C81.221 28.2564 81.0026 28.3245 80.7808 28.3144H79.6622Z" fill="#0075B8"/>
<path d="M91.2818 26.2402L90.2729 28.3727L89.1928 26.2402H88.4746L89.9544 29.0794L89.9822 31.0965H90.6569L90.6298 29.1115L92.032 26.2402H91.2818Z" fill="#0075B8"/>
<path d="M6.12727 13.419C5.9292 13.343 5.6549 13.2364 5.30436 13.0991C4.32898 12.7329 3.88725 12.2912 4.00837 11.7575C4.0728 11.3917 4.27468 11.0644 4.57265 10.8427C4.88085 10.6119 5.25634 10.4888 5.64136 10.4922C5.96925 10.4914 6.29099 10.5811 6.57114 10.7515C6.88089 10.9545 7.14549 11.2191 7.34844 11.5288L9.1624 9.98917C8.87509 9.46633 8.43854 9.04095 7.90845 8.76727C7.33697 8.4821 6.70274 8.34585 6.06457 8.37114C5.02189 8.36694 4.00962 8.72222 3.19829 9.37715C2.38809 9.99429 1.82571 10.8812 1.61304 11.8772C1.51929 12.1994 1.49255 12.5374 1.53445 12.8703C1.57636 13.2033 1.68603 13.5241 1.8567 13.813C2.35525 14.4446 3.02877 14.9154 3.7932 15.1667C3.86944 15.1973 3.96064 15.2429 4.09814 15.2885C5.13479 15.716 5.59434 16.2034 5.47037 16.7676C5.3984 17.1666 5.18143 17.525 4.8612 17.7736C4.53285 18.0223 4.12938 18.1513 3.71768 18.1391C3.3701 18.1486 3.02851 18.0473 2.74231 17.8499C2.40025 17.5902 2.11488 17.2634 1.90373 16.8895L0 18.4947C0.286437 19.0791 0.743582 19.5629 1.31095 19.8818C1.92467 20.1916 2.60586 20.3437 3.29305 20.3243C4.36396 20.3468 5.40941 19.9965 6.25052 19.3332C7.07657 18.712 7.65041 17.8133 7.86641 16.8025C8.04621 16.1162 7.98146 15.3887 7.68331 14.7449C7.33829 14.1324 6.78678 13.6625 6.12727 13.419Z" fill="#0075B8"/>
<path d="M13.8265 18.0841C13.5373 18.1871 13.2336 18.2437 12.9266 18.2515C12.627 18.2707 12.327 18.2186 12.0514 18.0993C11.7758 17.98 11.5325 17.797 11.3414 17.5654C11.1628 17.3175 11.0425 17.0324 10.9897 16.7315C10.9369 16.4305 10.9529 16.1215 11.0365 15.8277C11.1664 15.1358 11.5329 14.5107 12.0731 14.0593C12.5966 13.6047 13.2701 13.3602 13.9633 13.3732C14.2659 13.373 14.5659 13.4298 14.8475 13.5406C15.1507 13.6626 15.4295 13.8383 15.6704 14.0593L17.1495 12.4284C16.7739 12.0993 16.3385 11.8456 15.867 11.6811C14.7719 11.332 13.5915 11.3588 12.5134 11.7573C11.9264 11.9743 11.3801 12.2886 10.8975 12.6871C10.3924 13.0929 9.95521 13.5765 9.60225 14.1199C9.26341 14.6426 9.02068 15.2217 8.8855 15.8298C8.73734 16.3637 8.71393 16.9246 8.81709 17.469C8.92024 18.0135 9.1472 18.5269 9.48041 18.9697C9.83263 19.3939 10.2796 19.7294 10.7852 19.9492C11.2909 20.1689 11.8411 20.2669 12.3916 20.235C12.9603 20.2344 13.5257 20.1469 14.068 19.9757C14.6472 19.7844 15.1964 19.5124 15.6996 19.1677L14.9223 17.5825C14.5697 17.7775 14.2029 17.9456 13.8251 18.0855" fill="#0075B8"/>
<path d="M25.3521 12.7205C25.005 12.3088 24.5656 11.9848 24.0697 11.7751C23.5337 11.5513 22.9583 11.4372 22.3775 11.4395C22.0654 11.44 21.754 11.4708 21.4478 11.5314C21.153 11.5862 20.8628 11.6627 20.5792 11.7601C19.3682 12.2217 18.3298 13.047 17.6068 14.1227C17.268 14.6454 17.0253 15.2245 16.8901 15.8326C16.7711 16.3959 16.766 16.9773 16.8751 17.5425C16.9805 18.0701 17.2166 18.5628 17.5619 18.9753C17.8979 19.384 18.3266 19.7067 18.8123 19.9165C19.3435 20.1362 19.914 20.2451 20.4888 20.2364C20.8111 20.2359 21.1326 20.2052 21.4492 20.1445C21.7494 20.0845 22.0448 20.0031 22.3334 19.9008C23.5468 19.4559 24.5842 18.6313 25.2915 17.5497C25.6326 17.0235 25.8753 16.4398 26.0076 15.8269C26.1315 15.2707 26.1419 14.6951 26.0382 14.1348C25.9231 13.6154 25.6881 13.1301 25.3521 12.7177M23.8431 15.8426C23.6935 16.5293 23.3111 17.1431 22.7608 17.5803C22.3883 17.912 21.937 18.1429 21.4499 18.2507C21.2702 18.2936 21.086 18.3141 20.9013 18.312C20.6037 18.326 20.3071 18.2682 20.0365 18.1434C19.7659 18.0187 19.5293 17.8307 19.3467 17.5953C19.1684 17.3442 19.0485 17.0564 18.9957 16.7531C18.943 16.4497 18.9587 16.1384 19.0417 15.8419C19.1847 15.1473 19.562 14.523 20.1104 14.0735C20.493 13.742 20.9554 13.5161 21.452 13.418C21.6232 13.3869 21.7968 13.3714 21.9707 13.3717C22.272 13.3518 22.5736 13.4052 22.8497 13.5274C23.1259 13.6496 23.3682 13.837 23.556 14.0735C23.7363 14.3265 23.8561 14.6174 23.9063 14.924C23.9564 15.2306 23.9355 15.5446 23.8452 15.8419" fill="#0075B8"/>
<path d="M35.169 12.7205C34.828 12.3096 34.3943 11.9856 33.9037 11.775C33.3672 11.5528 32.7922 11.4387 32.2115 11.4395C31.8994 11.44 31.588 11.4707 31.2818 11.5314C30.3442 11.6905 29.4658 12.0957 28.7361 12.7055C28.2235 13.0971 27.7849 13.577 27.4408 14.1226C27.1018 14.6453 26.8591 15.2244 26.7241 15.8326C26.5972 16.395 26.5921 16.978 26.7091 17.5425C26.8191 18.0638 27.052 18.5513 27.3887 18.9642C27.7253 19.3772 28.1558 19.7037 28.6442 19.9165C29.175 20.1376 29.7457 20.2465 30.3206 20.2364C30.643 20.2359 30.9645 20.2051 31.2811 20.1444C31.5808 20.0825 31.8761 20.0011 32.1652 19.9008C32.7697 19.6915 33.3322 19.3767 33.8267 18.971C34.3318 18.5751 34.7655 18.0958 35.1092 17.5539C35.4441 17.0245 35.6862 16.4419 35.8252 15.8311C35.9516 15.2747 35.9567 14.6976 35.8402 14.139C35.7369 13.6186 35.5066 13.1318 35.1697 12.7219M33.6735 15.8468C33.5239 16.5335 33.1416 17.1474 32.5913 17.5845C32.2187 17.9163 31.7674 18.1471 31.2803 18.255C31.1007 18.2978 30.9164 18.3184 30.7317 18.3162C30.4339 18.3319 30.1367 18.2748 29.8659 18.1499C29.5951 18.025 29.3587 17.8361 29.1771 17.5995C28.9982 17.3481 28.8779 17.0597 28.825 16.7557C28.7721 16.4517 28.788 16.1396 28.8715 15.8425C29.0083 15.1456 29.3868 14.5194 29.9402 14.0742C30.4525 13.6188 31.115 13.3689 31.8005 13.3724C32.0991 13.3529 32.398 13.4066 32.6712 13.5289C32.9444 13.6512 33.1835 13.8384 33.3679 14.0742C33.5508 14.3259 33.6733 14.6163 33.7262 14.9229C33.7791 15.2295 33.7608 15.5441 33.6728 15.8425" fill="#0075B8"/>
<path d="M40.4589 18.3573C39.8797 18.3573 39.4985 18.2504 39.3311 18.0068C39.1483 17.5918 39.1318 17.1226 39.2848 16.6958L39.9865 13.479H41.9223L42.3185 11.6344H40.3677L40.8857 9.24121L38.5687 10.2786L38.2638 11.6323H37.4409L36.541 13.4769H37.8676L37.1808 16.678C36.9072 17.9277 36.9671 18.8268 37.3646 19.4068C37.7608 19.9711 38.5046 20.2617 39.6203 20.2617C39.7122 20.2617 39.9096 20.2468 40.1846 20.2311H40.352L41.2818 18.3409C41.16 18.3409 41.0381 18.3559 40.9163 18.3559L40.4589 18.3573Z" fill="#0075B8"/>
<path d="M46.8475 11.4062C46.4752 11.4114 46.1034 11.4369 45.7339 11.4824C45.6121 11.4974 45.4753 11.5131 45.3378 11.528C45.0485 11.5743 44.7286 11.6199 44.4115 11.6962L43.4967 13.7239C43.8777 13.5537 44.2762 13.4259 44.6851 13.3427C44.8989 13.3121 45.1126 13.2821 45.3406 13.2508C45.5543 13.2358 45.798 13.2202 46.0267 13.2202C46.447 13.1823 46.8684 13.2783 47.2308 13.4945C47.3516 13.5861 47.4402 13.7137 47.484 13.8588C47.5278 14.004 47.5244 14.1593 47.4745 14.3024L47.322 15.0035C47.086 14.7985 46.8113 14.6429 46.514 14.5461C46.1727 14.4437 45.8181 14.3921 45.4617 14.3929H45.3399C44.5025 14.4018 43.6902 14.6798 43.0229 15.1859C42.3464 15.6995 41.8803 16.4422 41.712 17.2748C41.6012 17.6365 41.5815 18.02 41.6546 18.3912C41.7278 18.7623 41.8915 19.1096 42.1312 19.4023C42.3709 19.6949 42.6792 19.9238 43.0286 20.0686C43.3781 20.2134 43.7579 20.2697 44.1344 20.2323C44.5428 20.2346 44.9491 20.1731 45.3385 20.0499C45.3622 20.0359 45.3879 20.0255 45.4147 20.0193C45.8188 19.8725 46.1911 19.65 46.5119 19.3638L46.3288 20.233L48.2197 20.0506L49.4851 14.197C49.5402 13.9203 49.5759 13.64 49.5919 13.3584V13.3128C49.606 12.8598 49.4479 12.4184 49.1495 12.0773C48.8291 11.8193 48.4608 11.6272 48.0658 11.5121C47.6709 11.3971 47.257 11.3613 46.8482 11.4069M46.8482 17.2456C46.7714 17.6061 46.5582 17.9228 46.2533 18.1298C45.9782 18.3054 45.6639 18.4102 45.3385 18.4347H45.0798C44.7012 18.4656 44.325 18.3512 44.0275 18.1148C43.9168 17.9964 43.84 17.8504 43.805 17.6921C43.77 17.5338 43.7782 17.369 43.8287 17.215C43.8615 17.0325 43.9311 16.8586 44.0332 16.7039C44.1354 16.5492 44.268 16.4169 44.4229 16.3151C44.698 16.1395 45.0123 16.0348 45.3378 16.0102C45.4338 15.9972 45.5308 15.9922 45.6277 15.9952C45.8118 15.9784 45.9973 15.9994 46.1729 16.057C46.3485 16.1146 46.5104 16.2075 46.6487 16.3301C46.7571 16.453 46.8322 16.6016 46.867 16.7617C46.9018 16.9218 46.8951 17.0881 46.8475 17.2449" fill="#0075B8"/>
<path d="M56.6781 11.3757C56.0075 11.3574 55.3411 11.4875 54.7266 11.7569C54.1566 12.0335 53.664 12.4472 53.2931 12.961L53.6137 11.4976L51.6473 11.6351L49.8027 20.1719L51.9523 20.0501L52.7752 16.254C52.8943 15.4444 53.2557 14.6898 53.8118 14.0895C54.0735 13.8535 54.3792 13.6713 54.7113 13.5534C55.0435 13.4356 55.3956 13.3844 55.7476 13.4027L56.9218 11.375L56.6781 11.3757Z" fill="#0075B8"/>
<path d="M64.3313 12.7205C63.9842 12.3088 63.5448 11.9848 63.0488 11.7751C62.5181 11.5514 61.9476 11.4372 61.3717 11.4395C61.0545 11.4392 60.7381 11.47 60.4269 11.5314C60.132 11.5862 59.8414 11.6626 59.5577 11.7601C58.954 11.9782 58.3921 12.298 57.8962 12.7056C57.3787 13.0965 56.9348 13.5763 56.5853 14.1227C56.2465 14.6454 56.0037 15.2245 55.8685 15.8326C55.7493 16.3958 55.7442 16.9773 55.8536 17.5425C55.9584 18.07 56.1941 18.5627 56.539 18.9753C56.8745 19.3853 57.3029 19.7094 57.7886 19.9208C58.3201 20.1404 58.8908 20.2493 59.4658 20.2407C59.7883 20.2402 60.1101 20.2094 60.4269 20.1488C60.7271 20.0887 61.0226 20.0072 61.3111 19.9051C62.5298 19.4723 63.57 18.6464 64.2679 17.5575C64.6094 17.0315 64.8523 16.4477 64.9846 15.8347C65.1085 15.2785 65.1189 14.703 65.0152 14.1426C64.9068 13.6209 64.6711 13.1341 64.3291 12.7255M62.8329 15.8504C62.6713 16.5358 62.2851 17.1475 61.7357 17.5881C61.3632 17.9199 60.9118 18.1507 60.4248 18.2586C60.2449 18.3014 60.0604 18.322 59.8755 18.3198C59.5778 18.3338 59.281 18.276 59.0103 18.1512C58.7397 18.0265 58.5029 17.8385 58.3201 17.6031C58.1419 17.352 58.022 17.0643 57.9692 16.7609C57.9164 16.4575 57.9322 16.1462 58.0152 15.8497C58.1582 15.1552 58.5355 14.5308 59.0839 14.0813C59.4667 13.7497 59.9293 13.5238 60.4262 13.4259C60.5971 13.3947 60.7705 13.3792 60.9442 13.3795C61.2451 13.3585 61.5466 13.4107 61.823 13.5317C62.0993 13.6527 62.3422 13.8388 62.5309 14.0742C62.7105 14.3275 62.8311 14.6178 62.8839 14.9238C62.9366 15.2298 62.9202 15.5437 62.8358 15.8426" fill="#0075B8"/>
<path d="M71.8166 11.6356L70.8106 16.3307C70.7089 16.8955 70.456 17.4222 70.0789 17.8547C69.9162 18.0252 69.7195 18.1595 69.5015 18.2488C69.2835 18.3382 69.0491 18.3806 68.8136 18.3734C68.6527 18.3977 68.4884 18.3711 68.3435 18.2972C68.1986 18.2234 68.0804 18.106 68.0056 17.9616C67.8831 17.4842 67.8991 16.9817 68.0519 16.5131L69.1335 11.498L66.9839 11.6356L65.8105 17.1387C65.5683 17.899 65.6282 18.7234 65.9779 19.4407C66.167 19.7204 66.4286 19.9433 66.7347 20.0856C67.0409 20.228 67.3799 20.2843 67.7156 20.2486C68.203 20.2501 68.6837 20.1353 69.1178 19.9138C69.6041 19.668 70.0427 19.3375 70.4131 18.9377L70.1238 20.2486L72.1187 20.0499L73.9483 11.5002L71.8166 11.6356Z" fill="#0075B8"/>
<path d="M79.9115 11.4217C79.4256 11.4207 78.9459 11.5303 78.5087 11.7423C78.0196 11.9901 77.5805 12.3261 77.2134 12.7334L77.472 11.4987L75.5056 11.6362L73.6738 20.1723L75.7934 20.0505L76.8144 15.3396C76.904 14.7739 77.1525 14.2454 77.5312 13.8156C77.6991 13.6485 77.8996 13.5176 78.1202 13.4311C78.3408 13.3446 78.5768 13.3042 78.8136 13.3126C79.2254 13.3126 79.4997 13.4501 79.6066 13.7088C79.7282 14.1913 79.7121 14.6983 79.5603 15.1722L78.478 20.1723L80.6276 20.0505L81.8017 14.5473C82.0515 13.7828 81.9912 12.9508 81.6336 12.2304C81.4464 11.9526 81.1874 11.7308 80.8842 11.5885C80.5809 11.4462 80.2448 11.3888 79.9115 11.4224" fill="#0075B8"/>
<path d="M91.1147 8.51006L90.2455 12.5498C90.0012 12.2016 89.6701 11.9233 89.2851 11.7425C88.8606 11.5492 88.3976 11.4552 87.9314 11.4675C87.6713 11.4723 87.4117 11.4927 87.1541 11.5288C86.8321 11.5724 86.5156 11.6491 86.2093 11.7575C85.6544 11.9497 85.1381 12.2392 84.6846 12.6125C84.1673 13.0173 83.7283 13.5132 83.3894 14.0759C83.0401 14.616 82.7921 15.2153 82.6576 15.8443C82.5185 16.4244 82.508 17.028 82.627 17.6126C82.7269 18.1436 82.9573 18.6413 83.2975 19.0611C83.601 19.4392 83.9923 19.7373 84.4374 19.9296C84.9217 20.1238 85.4405 20.2172 85.9621 20.2039C86.3624 20.2069 86.7615 20.1608 87.1505 20.0664C87.3186 20.0208 87.4711 19.9595 87.6236 19.9139C88.1572 19.686 88.6434 19.3603 89.0571 18.9535L88.7977 20.1732L90.7485 20.0514L93.2642 8.38965L91.1147 8.51006ZM89.5473 15.8578C89.4006 16.5509 89.024 17.174 88.4785 17.6261C87.968 18.0718 87.3124 18.316 86.6347 18.313C86.3374 18.3333 86.0396 18.2815 85.7667 18.1619C85.4937 18.0423 85.2538 17.8585 85.0672 17.6261C84.8902 17.3716 84.7724 17.0807 84.7223 16.7747C84.6723 16.4688 84.6913 16.1555 84.778 15.8578C84.9342 15.1708 85.3129 14.5547 85.8552 14.1051C86.222 13.7738 86.6682 13.5429 87.1505 13.4347C87.3304 13.3918 87.5149 13.3712 87.6998 13.3734C87.9939 13.3584 88.2873 13.4144 88.5552 13.5365C88.8232 13.6587 89.0578 13.8434 89.2395 14.0752C89.4181 14.3314 89.538 14.6239 89.5908 14.9317C89.6435 15.2396 89.6276 15.5553 89.5444 15.8564" fill="#0075B8"/>
</g>
<defs>
<clipPath id="clip0_4357_668">
<rect width="160" height="30.6969" fill="white" transform="translate(0 0.545898)"/>
</clipPath>
</defs>
</svg>
